<?xml version="1.0" encoding="UTF-8"?>
<svg id="Layer_2" data-name="Layer 2" xmlns="http://www.w3.org/2000/svg" viewBox="0 0 106.8 126.85">
  <path d="M.22,102.64C-2.56,63.75,21.66,42.37,46.69,23.8l14.8-10.75c5.31-3.69,14.69-10.06,17.95-11.32,3.46-1.33,8.38-2.37,11.85-1.28,2.55.8,3.57,2.48,3.04,4.99-1.95,9.29-28.19,34.03-33.31,37.28l-.83.54c-.33.22-.65.43-.97.63.93.53.65,1.44.51,1.9-1.65,5.44-2.71,22.69-.83,27.26l.07.15c.98,2.38,2.81,6.82,7.12,7.52,2.57.42,6.22-.56,10.55-2.82,15.05-7.87,27.07-17.92,27.19-18.03l2.97,1.02c-.12.1-12.34,10.33-27.7,18.36-5.45,2.85-10.02,3.91-14.01,3.28-6.27-1.01-8.33-5.96-9.54-8.91l-.07-.15c-1.9-4.61-1.04-20.68.54-27.1-.12.07-.23.13-.35.19-.95.52-1.93,1.06-2.92,1.5-15.05,9.61-16.77,9.89-17.66,10.03-1.23.19-2.06-.14-2.41-.48-.69-.69-.4-1.25,5.33-4.42,2.81-1.56,6.19-3.3,7.82-4.04.18-.08.3-.14.4-.2-.51-.34-.46-.66-.37-.85.33-.68,1.48-.77,2.69-.85.42-.03,1.04-.26,1.72-.56,2.11-1.35,4.5-2.89,7.19-4.65l.86-.56c4.87-3.09,30.67-27.5,32.5-36.27.19-.95.3-2.64-1.32-3.15-1.58-.49-4.94,0-8.01,1.18-2.06.78-8.65,4.98-17.22,10.93l-.19.13-14.55,10.58C24.86,43.18.99,64.25,3.73,102.53l-3.52.08v.03Z" style="fill: #3c2415;"/>
  <path d="M62.28,116.83c-.44,0-1.22-.1-1.73-.75l-.56-.78,1.34-.4c.03-.08.06-.16.08-.23l1.12-53.23,3.12.03-1.14,53.45c-.3,1.19-.92,1.79-1.97,1.9-.06,0-.16.01-.27.01h0Z" style="fill: #3c2415;"/>
  <path d="M81.13,116.99s-.81-.13-2.44-.27c-1.09-.09-1.92-.67-1.95-1.38l-2.83-57.07,3.12-.06,2.8,56.59c1.33.13,2.01.24,2.05.24l-.77,1.94h.02ZM79.12,114.74h0Z" style="fill: #3c2415;"/>
  <path d="M7.72,126.83h-.26c-.83-.04-1.9-.35-2.33-1.6l-1.2-3.46,3.23-.43.99,2.84c1.07-1.02,2.62-3,3.88-4.98L60.55,27.6l3.14.63L15.13,119.89c-4.08,6.49-6.37,6.96-7.41,6.96v-.02Z" style="fill: #3c2415;"/>
</svg>